<svg height="511pt" viewBox="-25 0 511 511.99995" width="511pt" xmlns="http://www.w3.org/2000/svg"><path d="m450.511719 301.574219c0 110.691406-98.503907 200.425781-220.007813 200.425781-121.5 0-220.003906-89.734375-220.003906-200.425781 0-64.171875 33.101562-121.292969 84.601562-157.984375 18.921876 15.480468 46.871094 25.742187 86.804688 14.429687-3.320312 7.460938-37.671875 34.710938-40.152344 85.304688 19.058594-22.390625 32.929688-24.5625 43.109375-28.203125 7.023438-2.507813 42.28125-19.898438 42.28125-37.308594h.089844c0 17.410156 26.492187 26.03125 33.511719 28.539062 10.179687 3.640626 32.820312-2.96875 51.882812 19.421876-2.480468-50.59375-36.832031-70.351563-40.152344-77.8125 39.109376 11.070312 66.722657 3.21875 85.621094-9.691407 55.941406 36.351563 92.414063 95.945313 92.414063 163.304688zm0 0" fill="#f46370"/><path d="m338.339844 104.007812c-38.972656-17.417968-81.253906-8.296874-81.253906-8.296874h-13.53125c-13.148438-34.132813-38.960938-81.253907-61.011719-85.324219-21.828125-4.03125-22.777344 23.3125-11.109375 40.792969 7.789062 11.648437 17.269531 29.140624 25.121094 44.390624-5.808594-1.109374-44.570313-7.632812-80.5 8.4375-37.953126 16.953126-54.671876-10.117187-55.523438-11.546874.480469 1.589843 9.789062 30.839843 34.570312 51.128906 18.921876 15.480468 46.871094 25.742187 86.804688 14.429687-3.320312 7.460938-37.671875 34.710938-40.152344 85.304688 19.058594-22.390625 32.929688-24.5625 43.109375-28.203125 7.023438-2.507813 42.28125-19.898438 42.28125-37.308594h.089844c0 17.410156 26.492187 26.03125 33.511719 28.539062 10.179687 3.640626 32.820312-2.96875 51.882812 19.421876-2.480468-50.59375-36.832031-70.351563-40.152344-77.8125 39.109376 11.070312 66.722657 3.21875 85.621094-9.691407 25.761719-17.597656 35.34375-44.589843 35.761719-45.832031-.6875 1.160156-17.378906 28.613281-55.519531 11.570312-38.972656-17.417968 38.140625 17.042969 0 0zm-138.515625-.929687-2.839844-6.539063c.5625 1.242188 1.601563 3.589844 2.902344 6.53125 3.289062 7.429688 8.21875 18.640626 11.019531 25.410157zm0 0" fill="#78d0a9"/><path d="m433.941406 203.292969c-14.5625-25.179688-34.832031-47.640625-59.113281-65.582031 20.402344-18.710938 28.132813-40.980469 28.503906-42.0625 1.636719-4.839844-.640625-10.121094-5.28125-12.269532-4.628906-2.140625-10.152343-.429687-12.78125 3.949219-.96875 1.601563-7.941406 12.210937-23.46875 12.210937-5.390625 0-11.820312-1.28125-19.382812-4.660156-38.351563-17.140625-78.953125-10.570312-86.320313-9.167968h-5.792968c-8.636719-20.761719-35.621094-79.5625-65.941407-85.152344-10.917969-2.023438-20.277343 1.507812-25.667969 9.6875-6.5625 9.972656-7.152343 29.140625 4.429688 46.492187 4.289062 6.421875 9.648438 15.53125 15.769531 26.789063-17.140625-.867188-42.480469.421875-66.921875 11.351562-29.339844 13.101563-41.550781-5.378906-42.839844-7.53125-2.582031-4.339844-8-6.078125-12.632812-4.039062-4.617188 2.03125-7 7.199218-5.539062 12.039062.359374 1.191406 8.070312 26.152344 28.589843 47.453125-22.628906 18.050781-41.449219 40.210938-54.839843 64.671875-16.0625 29.371094-24.210938 61.03125-24.210938 94.101563 0 56.382812 24.039062 109.34375 67.703125 149.113281 43.398437 39.542969 101.042969 61.3125 162.300781 61.3125 61.261719 0 118.90625-21.769531 162.304688-61.3125 43.664062-39.769531 67.703125-92.730469 67.703125-149.113281 0-34.242188-9.191407-68.222657-26.570313-98.28125zm-313.808594-90.152344c27.53125-12.3125 57.410157-10.152344 69.441407-8.550781l1.082031 2.46875v.019531l11.078125 25.402344c2.199219 5.03125 8.03125 7.351562 13.082031 5.199219 5.050782-2.140626 7.429688-7.949219 5.328125-13.019532-2.75-6.648437-7.558593-17.609375-11.109375-25.628906-1.320312-2.980469-2.371094-5.351562-2.941406-6.613281-.058594-.140625-.128906-.277344-.199219-.410157-.128906-.347656-.28125-.6875-.449219-1.019531-10.289062-20-18.941406-35.261719-25.691406-45.359375-6.371094-9.53125-6.820312-20.621094-4.347656-24.382812.347656-.527344 1.179688-1.789063 5.328125-1.027344 13.660156 2.527344 37.660156 38 53.492187 79.082031 1.488282 3.859375 5.191407 6.410157 9.328126 6.410157h13.53125c.699218 0 1.410156-.082032 2.089843-.222657.199219-.039062 10.402344-2.128906 25.011719-2.128906 14.21875 0 32.628906 1.980469 50.070312 9.78125 11.902344 5.320313 22.132813 6.839844 30.652344 6.328125-3.582031 3.691406-7.710937 7.300781-12.453125 10.542969-20.738281 14.167969-46.730469 16.96875-77.261719 8.328125-3.726562-1.058594-7.738281.140625-10.277343 3.070312-2.542969 2.929688-3.152344 7.070313-1.582031 10.621094 1.53125 3.417969 4.28125 6.140625 8.460937 10.269531 7.671875 7.570313 20.308594 20.070313 26.820313 40.820313-10.050782-4.257813-19.582032-4.839844-26.421876-5.257813-3.257812-.203125-6.628906-.410156-8.078124-.929687l-.980469-.339844c-22.539063-7.960938-25.902344-15.183594-25.902344-18.78125 0-5.519531-4.570313-10-10.089844-10s-10 4.480469-10 10c0 8.589844-25.308593 24.199219-35.648437 27.890625-1.191406.429687-2.441406.828125-3.742188 1.257813-5.789062 1.882812-12.75 4.132812-20.890625 9.339843 6.972657-20.898437 19.25-35.320312 26.839844-44.210937 3.632813-4.269532 6.03125-7.078125 7.339844-10 1.570312-3.550782.960937-7.6875-1.578125-10.617188-1.929688-2.222656-4.699219-3.453125-7.558594-3.453125-.910156 0-1.832031.121094-2.730469.382813-30.761719 8.707031-56.914062 4.488281-77.734375-12.550782h-.007812c-6.28125-5.152343-11.460938-10.941406-15.691406-16.652343 9.378906 1.269531 20.808593.011719 34.390624-6.058594 27.53125-12.3125-13.582031 6.070313 0 0zm110.371094 378.859375c-115.792968 0-210.003906-85.421875-210.003906-190.425781 0-56.53125 27.070312-109.183594 74.542969-145.511719 14.054687 9.710938 30.519531 15.289062 47.542969 16.445312 5.039062.339844 10.101562.3125 15.136718-.035156-11.277344 15.308594-24.398437 38.558594-25.960937 70.359375-.207031 4.28125 2.332031 8.210938 6.3125 9.792969 1.1875.46875 2.4375.699219 3.679687.699219 1.621094 0 3.210938-.390625 4.640625-1.140625.320313-.171875.621094-.359375.917969-.550782.75-.507812 1.441406-1.121093 2.050781-1.828124 14.832031-17.410157 25.320313-20.820313 34.570313-23.820313 1.480468-.480469 2.882812-.941406 4.300781-1.441406.339844-.128907 24.691406-9.929688 38.902344-25.230469 9.507812 9.128906 23.28125 14 29.339843 16.140625l.898438.320313c4.132812 1.46875 8.722656 1.75 13.59375 2.050781 10.757812.660156 22.957031 1.410156 34.050781 14.429687 2.769531 3.257813 7.308594 4.390625 11.289063 2.820313 3.980468-1.582031 6.519531-5.511719 6.308594-9.792969-1.417969-29.007812-12.550782-48.96875-23.101563-62.300781 15.8125 1.109375 31.894531-.863281 46.605469-6.933594 4.058594-1.675781 8.027344-3.609375 11.808594-5.847656 24.308593 16.871093 44.519531 38.582031 58.699218 63.101562 15.621094 27.023438 23.882813 57.542969 23.882813 88.273438 0 105.003906-94.214844 190.425781-210.007813 190.425781zm0 0"/><path d="m230.503906 471.914062c-102.5625 0-186.003906-76.414062-186.003906-170.339843 0-5.523438 4.476562-10 10-10s10 4.476562 10 10c0 82.898437 74.46875 150.339843 166.003906 150.339843 5.523438 0 10.003906 4.476563 10.003906 10 0 5.523438-4.480468 10-10.003906 10zm0 0"/><path d="m271.839844 467.519531c-5.523438 0-10.007813-4.476562-10.007813-10 0-5.523437 4.472657-10 9.996094-10h.011719c5.523437 0 10 4.476563 10 10 0 5.523438-4.476563 10-10 10zm0 0"/></svg>